<svg width="32" height="22" viewBox="0 0 32 22" fill="none" xmlns="http://www.w3.org/2000/svg">
<rect x="5.91272" y="10.2667" width="13.2857" height="1.46667" fill="#C03B32"/>
<rect x="2.46826" y="8.31116" width="3.44444" height="5.37778" rx="1" fill="#C03B32"/>
<rect x="25.5952" y="3.91113" width="1.47619" height="4.4" fill="#C03B32"/>
<rect x="25.5952" y="13.6888" width="1.47619" height="4.4" fill="#C03B32"/>
<path d="M3.45239 3.91113H4.92858V8.31113H3.45239V3.91113Z" fill="#C03B32"/>
<path d="M3.45239 13.6888H4.92858V18.0888H3.45239V13.6888Z" fill="#C03B32"/>
<rect x="22.6429" width="7.38095" height="3.91111" rx="1.95556" fill="#C03B32"/>
<rect x="22.6429" y="18.0889" width="7.38095" height="3.91111" rx="1.95556" fill="#C03B32"/>
<rect x="22.6429" width="7.38095" height="3.91111" rx="1.95556" fill="#C03B32"/>
<rect x="22.6429" y="18.0889" width="7.38095" height="3.91111" rx="1.95556" fill="#C03B32"/>
<rect x="0.5" width="7.38095" height="3.91111" rx="1.95556" fill="#C03B32"/>
<rect x="0.5" y="18.0889" width="7.38095" height="3.91111" rx="1.95556" fill="#C03B32"/>
<path d="M22.1508 9.31116C22.1508 8.75887 22.5985 8.31116 23.1508 8.31116H28.8111C30.2962 8.31116 31.5 9.51501 31.5 11C31.5 12.4851 30.2962 13.6889 28.8111 13.6889H23.1508C22.5985 13.6889 22.1508 13.2412 22.1508 12.6889V9.31116Z" fill="#C03B32"/>
<path d="M19.1984 10.2889C19.1984 9.73665 19.6461 9.28894 20.1984 9.28894H22.1508V12.7112H20.1984C19.6461 12.7112 19.1984 12.2634 19.1984 11.7112V10.2889Z" fill="#C03B32"/>
</svg>
