<svg width="30" height="22" viewBox="0 0 30 22" fill="none" xmlns="http://www.w3.org/2000/svg">
<rect x="4.7619" y="10.3" width="19.5238" height="1.4" fill="#C03B32"/>
<rect x="1.90479" y="8.43335" width="3.33333" height="5.13333" rx="1" fill="#C03B32"/>
<path d="M2.85712 4.2334H4.28569V17.7667H2.85712V4.2334Z" fill="#C03B32"/>
<rect y="0.5" width="7.14286" height="3.73333" rx="1.86667" fill="#C03B32"/>
<rect y="17.7666" width="7.14286" height="3.73333" rx="1.86667" fill="#C03B32"/>
<path d="M20.9524 9.43335C20.9524 8.88107 21.4001 8.43335 21.9524 8.43335H27.4333C28.8509 8.43335 30 9.58249 30 11C30 12.4175 28.8509 13.5667 27.4333 13.5667H21.9524C21.4001 13.5667 20.9524 13.119 20.9524 12.5667V9.43335Z" fill="#C03B32"/>
<path d="M18.0952 10.3667C18.0952 9.81441 18.5429 9.3667 19.0952 9.3667H20.9524V12.6334H19.0952C18.5429 12.6334 18.0952 12.1857 18.0952 11.6334V10.3667Z" fill="#C03B32"/>
</svg>
