<svg width="31" height="31" viewBox="0 0 31 31" fill="none" xmlns="http://www.w3.org/2000/svg">
<g clip-path="url(#clip0_69_114)">
<path d="M3.33612 0.0666142C1.86483 0.351185 0.666003 1.4047 0.199792 2.80939C0.0605347 3.23322 0.0363159 3.39669 0.0363159 4.05665C0.0363159 4.71661 0.0605347 4.88009 0.199792 5.30392C0.563074 6.40587 1.48944 7.39279 2.52479 7.8045L2.81542 7.91954L2.84569 10.844C2.87596 13.4596 2.89413 13.8108 2.991 14.1074C3.13026 14.5313 3.29374 14.8522 3.54803 15.2094L3.75389 15.5L3.54803 15.7846C3.29374 16.1479 3.13026 16.4688 2.991 16.8926C2.89413 17.1893 2.87596 17.5404 2.84569 20.15L2.81542 23.0805L2.47635 23.2197C1.44706 23.6375 0.563074 24.6002 0.199792 25.6961C0.0605347 26.1199 0.0363159 26.2834 0.0363159 26.9434C0.0363159 27.6033 0.0605347 27.7668 0.199792 28.1906C0.599402 29.4016 1.59843 30.4006 2.80936 30.8002C3.23319 30.9395 3.39667 30.9637 4.05663 30.9637C4.71659 30.9637 4.88007 30.9395 5.30389 30.8002C6.51483 30.4006 7.51385 29.4016 7.91346 28.1906C8.05272 27.7668 8.07694 27.6033 8.07694 26.9434C8.07694 26.2834 8.05272 26.1199 7.91346 25.6961C7.55018 24.6002 6.66014 23.6315 5.63085 23.2076L5.29784 23.0744V20.3014V17.5283L5.44315 17.2983C5.52186 17.1711 5.69745 16.9955 5.83065 16.9047L6.07889 16.7412L10.2445 16.7231L14.4101 16.7049L14.398 19.8957L14.3799 23.0805L14.0408 23.2197C13.0115 23.6375 12.1275 24.6002 11.7642 25.6961C11.625 26.1199 11.6008 26.2834 11.6008 26.9434C11.6008 27.6033 11.625 27.7668 11.7642 28.1906C12.1639 29.4016 13.1629 30.4006 14.3738 30.8002C14.7976 30.9395 14.9611 30.9637 15.6211 30.9637C16.281 30.9637 16.4445 30.9395 16.8683 30.8002C18.0793 30.4006 19.0783 29.4016 19.4779 28.1906C19.6172 27.7668 19.6414 27.6033 19.6414 26.9434C19.6414 26.2834 19.6172 26.1199 19.4779 25.6961C19.1146 24.6002 18.2246 23.6254 17.1953 23.2076L16.8623 23.0744L16.8441 19.8957L16.832 16.7109H20.8765C24.7092 16.7109 24.9514 16.7049 25.3933 16.5899C26.6103 16.2811 27.5791 15.3729 27.9908 14.168C28.118 13.7926 28.124 13.6594 28.1543 10.85L28.1846 7.9256L28.5176 7.7924C29.5408 7.37462 30.4369 6.39376 30.8002 5.30392C30.9394 4.88009 30.9637 4.71661 30.9637 4.05665C30.9637 3.39669 30.9394 3.23322 30.8002 2.80939C30.2189 1.05353 28.5236 -0.102917 26.7012 0.018177C25.0422 0.127161 23.6072 1.23517 23.0865 2.80939C22.9473 3.23322 22.923 3.39669 22.923 4.05665C22.923 4.71661 22.9473 4.88009 23.0865 5.30392C23.4498 6.40587 24.3701 7.39279 25.4115 7.8045L25.7021 7.91954V10.6926V13.4717L25.5568 13.7018C25.4781 13.8289 25.3025 14.0045 25.1693 14.0953L24.9211 14.2588L20.8765 14.277L16.832 14.2951L16.8441 11.1104L16.8623 7.9256L17.1953 7.7924C18.2185 7.37462 19.1146 6.39376 19.4779 5.30392C19.6172 4.88009 19.6414 4.71661 19.6414 4.05665C19.6414 3.39669 19.6172 3.23322 19.4779 2.80939C18.8967 1.05353 17.2014 -0.102917 15.3789 0.018177C13.7199 0.127161 12.2849 1.23517 11.7642 2.80939C11.625 3.23322 11.6008 3.39669 11.6008 4.05665C11.6008 4.71661 11.625 4.88009 11.7642 5.30392C12.1275 6.40587 13.0478 7.39279 14.0892 7.8045L14.3799 7.91954L14.398 11.1043L14.4101 14.2951L10.2445 14.277L6.07889 14.2588L5.83065 14.0953C5.69745 14.0045 5.52186 13.8289 5.44315 13.7018L5.29784 13.4717V10.6986V7.9256L5.63085 7.7924C6.65409 7.37462 7.55018 6.39376 7.91346 5.30392C8.05272 4.88009 8.07694 4.71661 8.07694 4.05665C8.07694 3.39669 8.05272 3.23322 7.91346 2.80939C7.55624 1.7256 6.70858 0.793177 5.66112 0.333021C5.01327 0.0423965 4.0203 -0.0665874 3.33612 0.0666142ZM4.85585 2.64591C5.41288 2.9547 5.73983 3.58439 5.67323 4.22618C5.58241 5.10411 4.77108 5.76408 3.8871 5.67326C3.00917 5.58244 2.34921 4.77111 2.44003 3.88712C2.50663 3.26954 2.99706 2.67013 3.59647 2.48244C3.94159 2.37951 4.50468 2.45216 4.85585 2.64591ZM16.4203 2.64591C16.9773 2.9547 17.3043 3.58439 17.2377 4.22618C17.1469 5.10411 16.3355 5.76408 15.4515 5.67326C14.5736 5.58244 13.9137 4.77111 14.0045 3.88712C14.0711 3.26954 14.5615 2.67013 15.1609 2.48244C15.506 2.37951 16.0691 2.45216 16.4203 2.64591ZM27.7426 2.64591C28.2996 2.9547 28.6265 3.58439 28.5599 4.22618C28.4691 5.10411 27.6578 5.76408 26.7738 5.67326C25.8959 5.58244 25.2359 4.77111 25.3267 3.88712C25.3933 3.26954 25.8838 2.67013 26.4832 2.48244C26.8283 2.37951 27.3914 2.45216 27.7426 2.64591ZM4.85585 25.5326C5.41288 25.8414 5.73983 26.4711 5.67323 27.1129C5.58241 27.9908 4.77108 28.6508 3.8871 28.56C3.00917 28.4692 2.34921 27.6578 2.44003 26.7738C2.50663 26.1563 2.99706 25.5568 3.59647 25.3692C3.94159 25.2662 4.50468 25.3389 4.85585 25.5326ZM16.4203 25.5326C16.9773 25.8414 17.3043 26.4711 17.2377 27.1129C17.1469 27.9908 16.3355 28.6508 15.4515 28.56C14.5736 28.4692 13.9137 27.6578 14.0045 26.7738C14.0711 26.1563 14.5615 25.5568 15.1609 25.3692C15.506 25.2662 16.0691 25.3389 16.4203 25.5326Z" fill="#C03B32"/>
<path d="M23.6133 25.793V31H24.8242H26.0352V29.1533V27.3066H26.2047C26.3561 27.3066 26.4227 27.4096 27.3006 29.1533L28.2391 31H29.5953C30.34 31 30.9395 30.9818 30.9273 30.9516C30.9213 30.9273 30.4732 30.0494 29.9404 29.002C29.4076 27.9545 28.9656 27.0826 28.9596 27.0645C28.9475 27.0463 29.0807 26.9676 29.2441 26.8889C29.9041 26.5619 30.558 25.7869 30.8184 25.0059C31.442 23.1592 30.3037 21.1309 28.3904 20.6768C28.0816 20.6041 27.5549 20.5859 25.8111 20.5859H23.6133V25.793ZM28.1301 23.1652C28.4389 23.3953 28.5479 23.5951 28.5479 23.9463C28.5479 24.2975 28.4389 24.4973 28.1301 24.7273C27.9848 24.8424 27.8637 24.8545 26.9979 24.8727L26.0352 24.8908V23.9463V23.0018L26.9979 23.0199C27.8637 23.0381 27.9848 23.0502 28.1301 23.1652Z" fill="#C03B32"/>
</g>
<defs>
<clipPath id="clip0_69_114">
<rect width="31" height="31" fill="white"/>
</clipPath>
</defs>
</svg>
