<svg width="31" height="31" viewBox="0 0 31 31" fill="none" xmlns="http://www.w3.org/2000/svg">
<g clip-path="url(#clip0_69_106)">
<path d="M7.40488 3.93555C6.80547 4.07481 6.47246 4.68028 6.69043 5.23731C6.80547 5.55215 7.05977 5.78223 7.37461 5.87305C7.51387 5.90938 8.56738 5.9336 10.0992 5.9336H12.5938V6.3877V6.8418H10.1598C8.81563 6.84785 7.59863 6.87207 7.45332 6.89629C6.87207 7.01133 6.59961 7.42911 6.59961 8.21622V8.71875H5.40078C4.2625 8.71875 4.18379 8.72481 3.93555 8.85801C3.75391 8.95489 3.62676 9.08204 3.52988 9.26368L3.39062 9.52403V12.3334V15.1367H2.69434H1.99805V12.3213C1.99805 9.19707 2.0041 9.22735 1.60449 8.93067C1.11406 8.55528 0.411719 8.7127 0.139258 9.26368L0 9.53008V16.1297C0 22.59 0 22.7354 0.121094 22.9715C0.441992 23.6375 1.35625 23.7283 1.8043 23.141L1.96777 22.9291L1.98594 20.0289L2.0041 17.1348H2.69434H3.39062V19.9139C3.39062 21.7303 3.41484 22.7535 3.45723 22.8686C3.54805 23.1229 3.86895 23.4256 4.11719 23.4922C4.23223 23.5285 5.20703 23.5527 6.32715 23.5527H8.3252L10.3232 25.2238C11.4191 26.1441 12.4 26.9373 12.5029 26.9918C12.6664 27.0826 13.175 27.0947 17.94 27.1129C21.482 27.125 23.2742 27.1068 23.4316 27.0645C23.7283 26.9857 24.0311 26.7375 24.134 26.4772C24.2006 26.3318 24.2188 25.9201 24.2188 24.8242V23.3711H24.6062H24.9998L25.018 24.3338C25.0361 25.1996 25.0482 25.3147 25.1633 25.4721C25.5084 25.9322 25.8354 25.9988 27.5912 25.9625C28.8082 25.9383 28.9414 25.908 29.232 25.5932C29.3047 25.5145 29.7346 24.6123 30.1887 23.5951L31 21.7424L30.9879 18.0914L30.9697 14.4404L30.1887 12.6846C29.7648 11.7158 29.3471 10.8379 29.2623 10.7289C29.002 10.3838 28.8506 10.3535 27.234 10.3535C25.6053 10.3535 25.4963 10.3777 25.1996 10.7652C25.0422 10.9772 25.0361 11.0014 25.018 11.9701L24.9998 12.957H24.6123H24.2309L24.2066 12.1154C24.1885 11.2012 24.1521 11.0922 23.7889 10.8197C23.5346 10.632 23.2197 10.5957 21.8453 10.5957H20.5254V9.08809C20.5254 7.62891 20.5193 7.58047 20.3922 7.38672C20.2105 7.12032 19.9926 6.96895 19.702 6.90235C19.5748 6.87207 18.3699 6.8418 17.0318 6.8418H14.5918V6.3877V5.93965L17.2135 5.92149C19.7867 5.90332 19.8352 5.90332 20.041 5.77012C20.8039 5.29786 20.6223 4.15957 19.7564 3.9416C19.4598 3.86289 7.71973 3.85684 7.40488 3.93555ZM18.5273 10.3475C18.5273 11.2254 18.5516 11.8672 18.5939 11.9701C18.6848 12.2244 19.0057 12.5272 19.2539 12.5938C19.3689 12.624 20.0834 12.6543 20.8463 12.6543H22.2207V13.4232C22.2207 14.3436 22.3115 14.5797 22.7596 14.8158C23.0199 14.949 23.0684 14.9551 24.6062 14.9551C26.132 14.9551 26.2047 14.949 26.459 14.8158C26.6406 14.7311 26.7799 14.5979 26.8646 14.4404C26.9918 14.2225 27.0039 14.1195 27.0039 13.2719V12.3516H27.4217H27.8334L28.4207 13.6715L29.002 14.9854V18.1398V21.2943L28.4328 22.59L27.8576 23.8857L27.4338 23.9039L27.01 23.9221L26.9918 22.9533C26.9736 21.8877 26.9434 21.7969 26.5256 21.5123C26.2592 21.3307 25.902 21.3004 24.3398 21.3246C22.8807 21.3428 22.7838 21.367 22.4811 21.6879C22.2449 21.9422 22.2207 22.1178 22.2207 23.6193V25.0664H17.7463H13.2719L11.2072 23.3408C10.075 22.3902 9.13652 21.6092 9.13047 21.6031C9.11836 21.5971 8.28281 21.5729 7.26562 21.5547L5.41895 21.5244L5.40078 16.1236L5.38867 10.7229L6.68437 10.7047C8.12539 10.6865 8.16172 10.6744 8.46445 10.2324C8.57949 10.0629 8.59766 9.95391 8.59766 9.46953V8.90039H13.5625H18.5273V10.3475Z" fill="#C03B32"/>
</g>
<defs>
<clipPath id="clip0_69_106">
<rect width="31" height="31" fill="white"/>
</clipPath>
</defs>
</svg>
