<svg width="32" height="31" viewBox="0 0 32 31" fill="none" xmlns="http://www.w3.org/2000/svg">
<g clip-path="url(#clip0_69_98)">
<path d="M12.6094 2.80932C8.29847 3.72964 4.13284 6.99917 2.24378 10.9226C0.185184 15.1851 -0.00856596 18.9632 1.61409 23.4195C2.72815 26.5679 3.64847 27.0039 6.19143 25.5749C7.74143 24.7273 8.03206 24.1945 7.42659 23.371C7.11175 22.9351 6.99065 22.9109 6.28831 23.1773C5.31956 23.5406 5.29534 23.5164 4.593 21.2156C4.15706 19.8593 4.0844 19.157 4.18128 17.2195C4.32659 14.3859 4.90784 12.7148 5.58597 13.0781C6.31253 13.4656 6.74847 13.3687 7.20862 12.6906C7.62034 12.0609 7.62034 12.0367 6.918 11.4796L6.19143 10.9226L7.28128 9.78432C7.88675 9.17885 8.8555 8.3312 9.43675 7.9437C10.6235 7.12026 13.3602 6.07885 14.3532 6.05464C14.9344 6.05464 15.0071 6.15151 15.0797 7.07182C15.1524 8.08901 15.1766 8.11323 16 8.11323C16.8235 8.11323 16.8477 8.08901 16.9203 7.07182C16.993 6.15151 17.0657 6.05464 17.6469 6.05464C18.6399 6.07885 21.3766 7.12026 22.5633 7.9437C23.1446 8.3312 24.1133 9.17885 24.7188 9.78432L25.8086 10.9226L25.0821 11.4796C24.3797 12.0367 24.3797 12.0609 24.7914 12.6906C25.2516 13.3687 25.6875 13.4656 26.4141 13.0781C27.0922 12.7148 27.6735 14.3859 27.8188 17.2195C27.9157 19.157 27.843 19.8593 27.4071 21.2156C26.7047 23.5164 26.6805 23.5406 25.7117 23.1773C25.0094 22.9109 24.8883 22.9351 24.5735 23.371C23.968 24.1945 24.2586 24.7273 25.8086 25.5749C28.3516 27.0039 29.2719 26.5679 30.386 23.4195C31.5727 20.1499 31.7664 17.946 31.1125 14.8218C29.4172 6.3937 21.086 0.968699 12.6094 2.80932Z" fill="#C03B32"/>
<path d="M14.4984 16.2023C13.8687 16.7594 13.6992 17.0742 13.6992 17.8734C13.6992 18.9875 14.1109 19.5687 15.225 20.0289C15.9516 20.3437 16.1453 20.3195 17.0414 19.9078C17.7922 19.5445 19.1 19.3508 21.9336 19.1328C24.0648 18.9633 26.0023 18.7211 26.2445 18.6C26.8258 18.2851 26.7531 17.4617 26.1234 17.2195C25.8086 17.0984 23.9437 16.8804 21.9336 16.7109C19.318 16.4929 18.0344 16.2992 17.3805 15.9601C16.1211 15.3304 15.4187 15.3789 14.4984 16.2023Z" fill="#C03B32"/>
<path d="M11.3985 25.7929C11.0352 26.7375 11.1078 27.4883 11.5922 28.0695C11.9797 28.5781 12.1735 28.6023 16.1211 28.5297L20.2141 28.457L20.5774 27.8031C20.8438 27.3187 20.8922 26.9554 20.7227 26.2289L20.4805 25.3086L16.0485 25.2359L11.6406 25.1875L11.3985 25.7929Z" fill="#C03B32"/>
</g>
<defs>
<clipPath id="clip0_69_98">
<rect width="31" height="31" fill="white" transform="translate(0.5)"/>
</clipPath>
</defs>
</svg>
