<svg width="31" height="31" viewBox="0 0 31 31" fill="none" xmlns="http://www.w3.org/2000/svg">
<g clip-path="url(#clip0_70_126)">
<path d="M14.8945 0.0363274C13.4414 0.302732 12.2789 1.15039 11.6553 2.40977C11.3525 3.02734 11.2375 3.51172 11.2375 4.20801C11.2314 5.0375 11.3465 5.53398 11.6795 6.20605L11.9641 6.77519L9.84492 6.79336C7.73789 6.81758 7.71367 6.81758 7.18691 6.98105C5.09199 7.6289 3.68125 9.18496 3.21504 11.3525C3.17871 11.516 2.63984 14.5312 2.01621 18.043L0.883984 24.4307L0.87793 25.3994C0.87793 26.235 0.896094 26.4348 1.01719 26.8525C1.2957 27.8152 1.81035 28.6811 2.54902 29.4197C3.17871 30.0434 4.11113 30.5641 5.08594 30.8305L5.60059 30.9697H15.5H25.3994L25.9141 30.8305C26.8889 30.5641 27.8213 30.0434 28.451 29.4197C29.1896 28.6811 29.7043 27.8152 29.9828 26.8525C30.1039 26.4348 30.1221 26.235 30.1221 25.3994L30.116 24.4307L28.9838 18.043C28.3602 14.5312 27.8213 11.516 27.785 11.3525C27.3187 9.18496 25.908 7.6289 23.8131 6.98105C23.2863 6.81758 23.2621 6.81758 21.1793 6.79336C20.0168 6.78125 19.0723 6.75703 19.0723 6.73281C19.0723 6.70859 19.1934 6.4543 19.3387 6.16367C19.6535 5.52793 19.7686 5.01933 19.7625 4.20801C19.7564 2.34922 18.5395 0.75078 16.6807 0.169529C16.3234 0.060545 15.2215 -0.0242195 14.8945 0.0363274ZM16.3113 1.97988C18.1943 2.63984 18.5273 5.21914 16.8684 6.32109C15.0883 7.50176 12.7572 6.01836 13.0842 3.91738C13.2416 2.9123 14.0711 2.05254 15.058 1.87695C15.4092 1.8164 15.9844 1.85879 16.3113 1.97988ZM23.0865 8.69453C23.9342 8.88223 24.8605 9.49375 25.3207 10.1598C25.5629 10.5109 25.8232 11.0498 25.9141 11.3768C25.9504 11.516 26.5135 14.6342 27.1613 18.3033C28.3965 25.3146 28.4268 25.5326 28.2451 26.2471C27.8637 27.7607 26.6527 28.8687 25.1209 29.117C24.582 29.2078 6.41797 29.2078 5.8791 29.117C5.01934 28.9838 4.38359 28.6508 3.74785 28.0211C3.07578 27.349 2.66406 26.3742 2.66406 25.4297C2.66406 25.1088 3.00312 23.0381 3.83867 18.3033C4.48652 14.6342 5.04961 11.516 5.08594 11.3768C5.34629 10.4141 6.0668 9.53008 6.96895 9.05176C7.85898 8.57949 7.39277 8.60976 15.4576 8.60371C21.8635 8.59765 22.699 8.60976 23.0865 8.69453Z" fill="#C03B32"/>
<path d="M9.56643 15.0944C9.06389 15.3608 9.08205 15.2154 9.08205 18.8967V22.142L9.22131 22.3418C9.43928 22.6688 9.63303 22.7778 9.99026 22.7778C10.3293 22.7778 10.517 22.6809 10.741 22.3781C10.8561 22.2268 10.8682 22.0996 10.8985 21.0582L10.9287 19.9018L12.2305 21.2459C12.9449 21.9906 13.611 22.6385 13.7139 22.6869C14.1317 22.9049 14.725 22.7233 14.9188 22.3176C15.0459 22.0451 15.0399 21.6274 14.9067 21.4276C14.8522 21.3428 14.3012 20.7494 13.6836 20.1076C13.066 19.4719 12.5574 18.9209 12.5453 18.8906C12.5332 18.8604 13.0358 18.3154 13.6533 17.6797C14.2709 17.0379 14.834 16.4324 14.9006 16.3295C15.2155 15.8088 14.8946 15.0883 14.3072 14.9793C13.8471 14.8946 13.7199 14.9854 12.2668 16.4869L10.8985 17.8916V16.7836C10.8985 15.4758 10.844 15.3002 10.3959 15.0822C10.0629 14.9188 9.88733 14.9248 9.56643 15.0944Z" fill="#C03B32"/>
<path d="M18.3215 15.0519C17.3346 15.2881 16.5596 16.0086 16.2145 17.0076C16.0873 17.383 16.0752 17.5041 16.0752 18.8603C16.0752 20.0834 16.0934 20.368 16.1842 20.6586C16.7594 22.5234 18.8422 23.3469 20.5072 22.3721C20.8887 22.142 21.3488 21.6516 21.5486 21.258C21.8574 20.6525 21.9301 20.2953 21.9059 19.5082C21.8877 18.8906 21.8695 18.7756 21.7545 18.6121C21.5062 18.267 21.3004 18.2125 20.2529 18.2367C19.4234 18.2549 19.3023 18.267 19.157 18.382C18.7332 18.6969 18.6182 19.0904 18.824 19.5082C19.0057 19.8775 19.2055 20.0047 19.6596 20.0289C20.0773 20.0592 20.1076 20.0955 19.9502 20.4043C19.5869 21.1066 18.4729 21.1248 18.0732 20.4406C17.9219 20.1863 17.9219 20.156 17.9219 18.8967C17.9219 17.4557 17.9521 17.3164 18.3215 17.0318C18.7998 16.6746 19.2963 16.7291 19.8352 17.1953C20.1984 17.5162 20.4406 17.601 20.7979 17.5344C21.0764 17.4799 21.4154 17.1408 21.4699 16.8623C21.5426 16.4566 21.4518 16.2326 21.0461 15.833C20.3074 15.0883 19.3266 14.8098 18.3215 15.0519Z" fill="#C03B32"/>
</g>
<defs>
<clipPath id="clip0_70_126">
<rect width="31" height="31" fill="white"/>
</clipPath>
</defs>
</svg>
