<svg width="104" height="51" viewBox="0 0 104 51" fill="none" xmlns="http://www.w3.org/2000/svg">
<g clip-path="url(#clip0_9_63)">
<path d="M83.5177 40.0016C94.584 40.0016 103.555 31.048 103.555 20.0031C103.555 8.95823 94.584 0.00457764 83.5177 0.00457764C72.4514 0.00457764 63.4803 8.95823 63.4803 20.0031C63.4803 31.048 72.4514 40.0016 83.5177 40.0016Z" fill="#C03B32"/>
<path d="M9.56355 14.2928C9.54917 14.3071 9.54199 14.3039 9.54199 14.2831L9.53552 4.37C9.53552 4.35945 9.53972 4.34932 9.5472 4.34186C9.55468 4.33439 9.56483 4.3302 9.5754 4.3302L17.6937 4.33665C17.708 4.33665 17.7217 4.34243 17.7318 4.35272C17.7419 4.36301 17.7476 4.37697 17.7476 4.39152L17.7541 6.0299C17.7544 6.06598 17.7474 6.10198 17.7333 6.13578C17.7192 6.16958 17.6984 6.20051 17.6722 6.22676L9.56355 14.2928Z" fill="white"/>
<path d="M17.3751 7.62608L9.13323 15.852C9.11008 15.8751 9.11008 15.9126 9.13323 15.9357L9.73685 16.5382C9.76 16.5613 9.79754 16.5613 9.82069 16.5382L18.0626 8.31221C18.0857 8.2891 18.0857 8.25164 18.0626 8.22853L17.459 7.62608C17.4358 7.60297 17.3983 7.60297 17.3751 7.62608Z" fill="white"/>
<path d="M17.4098 10.3623L9.12519 18.6309C9.11383 18.6422 9.11383 18.6606 9.12519 18.672L9.75778 19.3033C9.76914 19.3147 9.78757 19.3147 9.79893 19.3033L18.0835 11.0348C18.0949 11.0234 18.0949 11.0051 18.0835 10.9937L17.4509 10.3623C17.4396 10.351 17.4211 10.351 17.4098 10.3623Z" fill="white"/>
<path d="M28.7955 16.1635C28.2163 16.1477 27.6436 16.2012 27.0774 16.3238C25.9636 16.5641 24.8474 16.9309 23.7286 17.4243C23.7183 17.429 23.7072 17.4315 23.696 17.4319C23.6847 17.4322 23.6735 17.4304 23.663 17.4264C23.6524 17.4224 23.6428 17.4163 23.6347 17.4086C23.6265 17.4008 23.6199 17.3916 23.6154 17.3813L21.9113 13.515C21.9041 13.4982 21.9035 13.4793 21.9098 13.4623C21.916 13.4453 21.9285 13.4314 21.9447 13.4236C23.149 12.8426 24.4054 12.4349 25.7139 12.2004C26.3614 12.0842 27.0738 11.9928 27.8513 11.9261C29.1534 11.8149 30.4044 11.8469 31.6044 12.0218C32.3107 12.1251 32.993 12.346 33.6512 12.6845C34.3159 13.0266 34.876 13.4558 35.3316 13.9722C36.2017 14.9576 36.6749 16.1632 36.7511 17.5889C36.7755 18.0472 36.7881 18.3609 36.7888 18.5302C36.8104 22.2236 36.8064 25.9457 36.7769 29.6965C36.7769 29.7236 36.7662 29.7496 36.747 29.7688C36.7278 29.788 36.7017 29.7987 36.6745 29.7987L32.6359 29.7923C32.6194 29.7923 32.6032 29.7878 32.5892 29.7793C32.5751 29.7707 32.5636 29.7585 32.5561 29.7439L31.4244 27.4966C31.4178 27.4836 31.4082 27.4724 31.3963 27.464C31.3844 27.4556 31.3707 27.4502 31.3562 27.4483C31.3418 27.4463 31.3271 27.448 31.3134 27.453C31.2997 27.4581 31.2875 27.4664 31.2778 27.4773C31.045 27.7412 30.8035 28.004 30.5535 28.2658C29.6948 29.1637 28.6371 29.7216 27.3803 29.9397C26.6912 30.0594 26.0125 30.1107 25.3442 30.0935C24.5948 30.0741 23.929 29.9615 23.347 29.7557C21.7654 29.1956 20.7566 28.0424 20.3204 26.2961C20.1005 25.4147 20.0599 24.4676 20.1986 23.455C20.3833 22.1096 20.9711 21.06 21.962 20.3063C22.4362 19.9455 23.0757 19.6264 23.8805 19.3488C24.8226 19.0232 25.7984 18.8242 26.808 18.7518C28.0798 18.6614 29.3535 18.6037 30.6289 18.5786C30.6435 18.5783 30.6574 18.5724 30.668 18.5621C30.6785 18.5517 30.685 18.5377 30.686 18.5226C30.7313 17.997 30.667 17.5624 30.4931 17.2188C30.1475 16.5361 29.5816 16.1843 28.7955 16.1635ZM26.7832 25.3849C27.0483 25.6259 27.3799 25.7614 27.778 25.7915C28.7244 25.8625 29.5058 25.5671 30.1223 24.9051C30.4651 24.5379 30.6627 24.0445 30.7151 23.4249C30.7539 22.9702 30.7543 22.4911 30.7162 21.9877C30.7151 21.9707 30.7073 21.9549 30.6944 21.9436C30.6814 21.9323 30.6645 21.9265 30.6472 21.9274C30.0789 21.954 29.4997 21.9862 28.9098 22.0242C28.2487 22.0658 27.694 22.2211 27.2456 22.49C26.6657 22.8379 26.3635 23.3524 26.3391 24.0338C26.3283 24.3278 26.3466 24.5666 26.3941 24.7502C26.4566 24.9933 26.5863 25.2049 26.7832 25.3849Z" fill="white"/>
<path d="M68.4872 18.5227C68.485 18.0594 68.4422 17.6943 68.3589 17.4276C68.203 16.9298 67.9134 16.5824 67.4901 16.3851C67.1381 16.2216 66.7181 16.1488 66.2301 16.1668C65.4598 16.1947 64.7046 16.317 63.9645 16.5336C63.1087 16.7846 62.2849 17.0837 61.493 17.4308C61.4764 17.4378 61.4577 17.4381 61.441 17.4317C61.4242 17.4253 61.4108 17.4126 61.4036 17.3964L59.6887 13.5096C59.682 13.4942 59.6815 13.4767 59.6873 13.4609C59.6931 13.4451 59.7048 13.4321 59.72 13.4247C60.7396 12.9298 61.8052 12.5626 62.9169 12.3231C64.0004 12.0893 65.2486 11.9441 66.6613 11.8874C67.507 11.8537 68.3036 11.887 69.0509 11.9874C69.8226 12.0914 70.5139 12.2775 71.1246 12.5458C72.8873 13.3203 73.9781 14.6557 74.397 16.5519C74.5019 17.0281 74.5576 17.7413 74.564 18.6916C74.5885 22.1964 74.5949 25.7016 74.5834 29.2071C74.5827 29.4287 74.5669 29.6066 74.536 29.7407C74.5326 29.7554 74.5241 29.7685 74.512 29.7778C74.4999 29.7872 74.4848 29.7923 74.4692 29.7923L70.4628 29.7988C70.4349 29.7987 70.4075 29.7909 70.3836 29.7761C70.3596 29.7613 70.34 29.7401 70.327 29.7149L69.1888 27.4977C69.1822 27.4847 69.1724 27.4736 69.1603 27.4654C69.1482 27.4572 69.1342 27.4521 69.1195 27.4506C69.1049 27.4491 69.0901 27.4512 69.0764 27.4568C69.0627 27.4624 69.0506 27.4713 69.0412 27.4827C68.7645 27.814 68.489 28.1166 68.2145 28.3906C67.506 29.0992 66.6642 29.5746 65.6891 29.8171C64.5178 30.1082 63.334 30.167 62.1376 29.9935C60.9275 29.8178 59.9506 29.3079 59.2069 28.4638C58.7542 27.9503 58.4176 27.3234 58.197 26.5833C57.939 25.7163 57.8503 24.789 57.9307 23.8014C58.0637 22.1677 58.7844 20.9238 60.0929 20.0696C60.3832 19.881 60.7543 19.7003 61.2063 19.5274C62.5127 19.0304 63.8998 18.7518 65.3679 18.6916C66.8445 18.6313 67.8663 18.5937 68.4333 18.5786C68.4477 18.5783 68.4614 18.5723 68.4714 18.5619C68.4815 18.5514 68.4872 18.5373 68.4872 18.5227ZM64.6878 25.5022C64.945 25.6779 65.2364 25.7783 65.5619 25.8034C65.8335 25.8235 66.1335 25.8005 66.4619 25.7346C67.207 25.5839 67.7851 25.1662 68.1961 24.4813C68.3779 24.1786 68.4771 23.8803 68.4936 23.5863C68.5217 23.0936 68.5299 22.5614 68.5184 21.9898C68.5183 21.9827 68.5167 21.9756 68.5138 21.9691C68.5109 21.9625 68.5067 21.9566 68.5015 21.9517C68.4963 21.9468 68.4901 21.943 68.4834 21.9405C68.4767 21.938 68.4695 21.9368 68.4624 21.9371C67.8516 21.9529 67.2692 21.982 66.7152 22.0243C66.2654 22.058 65.8612 22.1394 65.5026 22.2685C64.516 22.6227 64.0533 23.3403 64.1143 24.4211C64.1416 24.9001 64.3328 25.2605 64.6878 25.5022Z" fill="white"/>
<path d="M81.916 14.3466C82.0878 14.4018 82.2282 14.3509 82.3375 14.1938C82.9468 13.3189 83.7681 12.6982 84.8014 12.3317C85.7858 11.9824 86.8529 11.8343 88.0026 11.8874C88.6321 11.9168 89.2227 12.0125 89.7746 12.1746C90.3573 12.3467 90.8905 12.6021 91.3741 12.9406C92.4404 13.6871 93.1378 14.7188 93.4662 16.0355C93.6695 16.8538 93.7648 17.7241 93.7518 18.6464C93.7454 19.0982 93.7421 19.3259 93.7421 19.3295C93.7421 22.7504 93.7421 26.2111 93.7421 29.7116C93.7421 29.7347 93.7329 29.7569 93.7166 29.7732C93.7002 29.7896 93.678 29.7988 93.6548 29.7988L87.7547 29.7923C87.7275 29.7923 87.7015 29.7815 87.6823 29.7624C87.6631 29.7432 87.6523 29.7172 87.6523 29.6901C87.6523 26.9326 87.6523 24.189 87.6523 21.4595C87.6523 20.3242 87.6509 19.734 87.648 19.6888C87.6128 19.0598 87.5064 18.4764 87.3289 17.9385C87.025 17.0198 86.3603 16.5867 85.3349 16.639C84.3548 16.6892 83.6564 17.1335 83.2396 17.9719C83.0672 18.319 82.9346 18.7479 82.8419 19.2585C82.6989 20.0488 82.627 20.8459 82.6263 21.6499C82.6249 22.8426 82.6166 24.0348 82.6015 25.2268C82.5965 25.6549 82.6004 26.3718 82.6134 27.3772C82.6234 28.164 82.613 28.9507 82.5821 29.7374C82.5816 29.7522 82.5754 29.7661 82.565 29.7764C82.5545 29.7866 82.5406 29.7923 82.5261 29.7923L76.6001 29.7988C76.5798 29.7988 76.5603 29.7907 76.546 29.7764C76.5316 29.7621 76.5236 29.7426 76.5236 29.7224V12.237C76.5236 12.2227 76.5292 12.2091 76.5393 12.199C76.5494 12.1889 76.5632 12.1832 76.5775 12.1832H81.0537C81.0708 12.1832 81.0875 12.1886 81.1016 12.1986C81.1157 12.2086 81.1265 12.2228 81.1324 12.2392L81.847 14.2777C81.8531 14.2942 81.8624 14.3089 81.8744 14.3208C81.8863 14.3328 81.9006 14.3416 81.916 14.3466Z" fill="white"/>
<path d="M44.9621 28.1783C44.9427 28.1783 44.9235 28.1825 44.9059 28.1907C44.8884 28.199 44.8728 28.2109 44.8603 28.2258C44.8479 28.2407 44.8389 28.2581 44.8339 28.2768C44.829 28.2956 44.8282 28.3152 44.8317 28.3342C45.0257 29.4136 45.1152 30.4868 45.1001 31.554C45.09 32.2389 45.085 32.5838 45.085 32.5889C45.0871 34.2341 45.0846 35.8792 45.0774 37.5244C45.0774 37.5384 45.0718 37.5518 45.0617 37.5617C45.0516 37.5716 45.0378 37.5772 45.0236 37.5772H39.1073C39.0926 37.5773 39.0785 37.572 39.0674 37.5623C39.0563 37.5526 39.049 37.5391 39.0469 37.5244C39.0081 37.2304 38.9934 36.9353 39.0027 36.6391C39.0149 36.2195 39.021 36.0073 39.021 36.0022C39.0239 28.127 39.0218 20.2521 39.0146 12.3775C39.0146 12.3633 39.0203 12.3496 39.0304 12.3395C39.0405 12.3294 39.0542 12.3237 39.0685 12.3237L43.8897 12.3055C43.91 12.3054 43.9299 12.3118 43.9468 12.3237C43.9638 12.3356 43.9769 12.3525 43.9845 12.3722L44.7875 14.4398C44.8007 14.4743 44.8246 14.5017 44.8543 14.5161C44.9822 14.5821 45.0879 14.5552 45.1712 14.4355C46.3734 12.7042 48.0509 11.896 50.2037 12.0107C50.997 12.053 51.7288 12.2506 52.3992 12.6034C52.9971 12.9183 53.5425 13.3769 54.0354 13.9793C54.68 14.7668 55.1542 15.6787 55.4582 16.715C55.7219 17.6158 55.8936 18.5036 55.9734 19.3786C56.033 20.0412 56.0575 20.758 56.0467 21.529C56.0273 22.8629 55.8311 24.1539 55.4582 25.4017C55.2943 25.9511 55.0669 26.4897 54.7759 27.0175C54.477 27.5604 54.14 28.033 53.7649 28.4354C52.4046 29.8962 50.6517 30.4628 48.5061 30.1351C47.2709 29.9464 46.2221 29.3899 45.3598 28.4655C45.3562 28.4619 45.3228 28.4214 45.2596 28.3439C45.1676 28.2335 45.0685 28.1783 44.9621 28.1783ZM46.206 24.8735C46.4876 25.1002 46.8501 25.2404 47.2935 25.2942C47.9395 25.373 48.4719 25.2292 48.8909 24.8628C49.0763 24.7014 49.2368 24.4798 49.3727 24.198C49.4998 23.9355 49.5882 23.6733 49.6378 23.4116C49.931 21.8668 49.9306 20.289 49.6367 18.6782C49.3716 17.2245 48.5028 16.5992 47.0305 16.8021C46.6957 16.8487 46.3957 16.9796 46.1305 17.1948C45.9415 17.3482 45.7773 17.5562 45.6379 17.8187C45.505 18.0683 45.4101 18.3189 45.3534 18.5707C45.1076 19.6644 45.0361 20.7928 45.1389 21.9561C45.1791 22.4108 45.2147 22.7356 45.2456 22.9307C45.2973 23.2542 45.3803 23.5708 45.4946 23.8806C45.6404 24.2779 45.8776 24.6089 46.206 24.8735Z" fill="white"/>
<path d="M17.3788 13.1357L9.1339 21.3647C9.11075 21.3878 9.11075 21.4252 9.1339 21.4483L9.73752 22.0508C9.76067 22.0739 9.79821 22.0739 9.82136 22.0508L18.0663 13.8218C18.0895 13.7987 18.0895 13.7612 18.0663 13.7381L17.4627 13.1357C17.4395 13.1126 17.402 13.1126 17.3788 13.1357Z" fill="white"/>
<path d="M17.3951 15.8751L9.1258 24.1284C9.11022 24.144 9.11022 24.1692 9.12579 24.1847L9.75076 24.8085C9.76633 24.824 9.79158 24.824 9.80716 24.8085L18.0765 16.5551C18.0921 16.5396 18.0921 16.5144 18.0765 16.4988L17.4515 15.8751C17.436 15.8595 17.4107 15.8595 17.3951 15.8751Z" fill="white"/>
<path d="M18.085 19.2664L17.4433 18.6259C17.4319 18.6145 17.4135 18.6145 17.4022 18.6259L9.12367 26.8883C9.1123 26.8997 9.1123 26.9181 9.12367 26.9294L9.7654 27.5699C9.77676 27.5813 9.79519 27.5812 9.80655 27.5699L18.085 19.3074C18.0964 19.2961 18.0964 19.2777 18.085 19.2664Z" fill="white"/>
<path d="M0.29948 38.1908L4.97948 33.5951C5.57086 33.6324 6.14858 33.5524 6.71265 33.3552C7.54259 33.0662 8.16559 32.5502 8.58164 31.8072C9.03936 30.9911 9.31134 30.1276 9.39756 29.2168C9.40589 29.1251 9.44636 29.0394 9.51182 28.9747C11.9945 26.5177 14.4566 24.0693 16.8983 21.6295C17.2482 21.2802 17.5267 21.0141 17.7336 20.8313C17.7609 20.8076 17.7746 20.8137 17.7746 20.8495C17.804 24.3393 17.7972 26.7397 17.7541 28.0507C17.716 29.2082 17.5299 30.455 17.1958 31.7911C16.7632 33.5195 16.004 35.0406 14.9183 36.3544C13.8412 37.6568 12.4849 38.634 10.8494 39.2859C9.25062 39.9227 7.49229 40.2207 5.57445 40.1798C3.58475 40.1375 1.79445 39.9288 0.203552 39.5537C0.188426 39.55 0.174957 39.5415 0.16522 39.5297C0.155482 39.5178 0.150015 39.5032 0.14966 39.4881C0.13457 39.0306 0.18451 38.5981 0.29948 38.1908Z" fill="#C03B32"/>
<path d="M2.56232 33.6628L1.92711 33.0311C1.91572 33.0197 1.8973 33.0198 1.88595 33.0311L0.125415 34.7944C0.11407 34.8058 0.114101 34.8242 0.125486 34.8355L0.760702 35.4673C0.772086 35.4786 0.790515 35.4786 0.80186 35.4672L2.5624 33.7039C2.57374 33.6926 2.57371 33.6742 2.56232 33.6628Z" fill="white"/>
<path d="M4.9795 33.5951L0.299502 38.1908L-0.0583426 37.825C-0.0721145 37.811 -0.0799338 37.7922 -0.0801352 37.7727C-0.0803365 37.7532 -0.0729034 37.7346 -0.0594199 37.7207L4.46214 33.2089C4.47132 33.1997 4.48245 33.1926 4.49488 33.188C4.50732 33.1834 4.5208 33.1815 4.53455 33.1823C4.5483 33.1831 4.56203 33.1866 4.57495 33.1927C4.58788 33.1987 4.59972 33.2072 4.6098 33.2175L4.9795 33.5951Z" fill="white"/>
<path d="M39.6909 47.6888C39.3266 47.2279 39.1089 46.6823 39.0378 46.0522C38.9595 45.3561 39.0029 44.7602 39.1679 44.2645C39.5806 43.0356 40.5332 42.2995 42.0258 42.0562C43.0915 41.8825 44.005 42.1113 44.7662 42.7425C44.7921 42.764 44.8111 42.7893 44.8212 42.8156C44.8314 42.8418 44.8323 42.8682 44.8238 42.8919C44.8039 42.9464 44.7669 42.9944 44.7129 43.0361C44.6531 43.0813 44.6083 43.1242 44.5784 43.1647C44.4304 43.3697 44.2511 43.3657 44.0406 43.1525C43.9097 43.0217 43.6706 42.9139 43.3234 42.8294C43.0616 42.7657 42.797 42.7431 42.5295 42.7616C41.3997 42.8415 40.6563 43.35 40.2991 44.287C39.9619 45.1731 39.9889 46.0505 40.3802 46.9192C40.5865 47.379 40.9202 47.7265 41.3812 47.9616C41.8266 48.1886 42.3224 48.2842 42.8688 48.2483C43.4522 48.2089 43.9481 48.0114 44.3564 47.6558C44.3905 47.6267 44.4365 47.6088 44.4857 47.6056C44.535 47.6024 44.5839 47.6141 44.6232 47.6385C44.9661 47.8481 45.075 48.0317 44.9498 48.1892C44.9057 48.2436 44.7534 48.3404 44.493 48.4793C43.4031 49.0643 42.3175 49.1563 41.2361 48.7556C40.5773 48.5112 40.0622 48.1556 39.6909 47.6888Z" fill="white"/>
<path d="M57.455 44.4775C57.2877 44.1681 57.2478 43.8349 57.3353 43.4778C57.4126 43.1638 57.5786 42.8846 57.8334 42.6404C58.2821 42.21 58.8677 41.9966 59.5902 42C60.4053 42.0047 61.0961 42.2623 61.6627 42.7729C61.6835 42.7923 61.6968 42.8169 61.6999 42.842C61.7031 42.8671 61.6959 42.891 61.6798 42.909L61.3242 43.2999C61.3167 43.3085 61.3069 43.3154 61.2956 43.3202C61.2843 43.325 61.2717 43.3276 61.2584 43.3277C61.2451 43.3279 61.2315 43.3257 61.2183 43.3212C61.2052 43.3167 61.1927 43.31 61.1816 43.3016C60.7671 42.9771 60.2842 42.7939 59.7328 42.752C59.3551 42.7229 59.0217 42.791 58.7327 42.9561C58.4399 43.1225 58.2732 43.358 58.2327 43.6628C58.1832 44.0257 58.3385 44.3135 58.6985 44.5264C58.9444 44.6706 59.594 44.9416 60.6474 45.3394C61.4066 45.6256 61.8458 46.0862 61.965 46.7212C62.0689 47.2691 61.9415 47.7623 61.5828 48.2008C61.2165 48.6486 60.6784 48.9074 59.9686 48.9772C58.8417 49.0865 57.867 48.8033 57.0444 48.1275C57.0219 48.1087 57.0067 48.0844 57.0017 48.0592C56.9968 48.034 57.0025 48.0098 57.0177 47.9914L57.3847 47.5343C57.3955 47.5214 57.4094 47.5108 57.4254 47.5033C57.4415 47.4958 57.4593 47.4916 57.4779 47.4907C57.4964 47.4899 57.5153 47.4926 57.5333 47.4986C57.5513 47.5046 57.568 47.5138 57.5824 47.5256C58.2162 48.035 58.9038 48.2787 59.6454 48.2566C60.0396 48.245 60.3647 48.1542 60.6207 47.9844C60.968 47.7541 61.1075 47.4337 61.039 47.0231C60.9934 46.7439 60.8274 46.5066 60.5409 46.3112C60.2696 46.1251 59.9844 45.9844 59.6853 45.889C59.2252 45.7425 58.8062 45.5622 58.4285 45.3482C57.9469 45.076 57.6224 44.7858 57.455 44.4775Z" fill="white"/>
<path d="M47.3188 46.9407L46.7672 48.8703C46.7594 48.8964 46.7456 48.9196 46.7273 48.9375C46.7089 48.9554 46.6868 48.9674 46.663 48.9723C46.4588 49.014 46.2563 49.0086 46.0553 48.9562C46.0454 48.9535 46.0362 48.9484 46.0282 48.9413C46.0202 48.9343 46.0136 48.9253 46.0088 48.9151C46.004 48.9049 46.0011 48.8935 46.0002 48.8818C45.9994 48.8701 46.0007 48.8583 46.004 48.8471L48.0372 42.1534C48.045 42.1271 48.0586 42.1036 48.0765 42.0851C48.0945 42.0666 48.1163 42.0538 48.1398 42.0478C48.3761 41.9847 48.6123 41.9841 48.8486 42.0461C48.8722 42.0527 48.8942 42.0661 48.9124 42.0851C48.9306 42.1042 48.9445 42.1283 48.9528 42.1551L50.9956 48.8596C50.9993 48.8716 51.0007 48.8843 50.9997 48.8968C50.9988 48.9093 50.9955 48.9212 50.9902 48.9315C50.9849 48.9417 50.9777 48.9502 50.9691 48.956C50.9606 48.9619 50.951 48.965 50.9411 48.9651L50.3366 48.9597C50.2953 48.9598 50.254 48.9414 50.2188 48.9073C50.1835 48.8731 50.1562 48.8251 50.141 48.7702L49.6327 46.9371C49.6258 46.9123 49.6117 46.8906 49.5923 46.8752C49.573 46.8597 49.5495 46.8514 49.5252 46.8513H47.4215C47.3991 46.8515 47.3771 46.8602 47.3586 46.8762C47.3402 46.8923 47.3263 46.9149 47.3188 46.9407ZM49.3216 46.1413C49.3328 46.1412 49.3439 46.1382 49.354 46.1327C49.364 46.1271 49.3727 46.1192 49.3794 46.1094C49.3861 46.0997 49.3906 46.0885 49.3925 46.0766C49.3945 46.0648 49.3938 46.0526 49.3905 46.0412L48.5199 42.8919C48.491 42.787 48.4627 42.787 48.4349 42.8919L47.6171 45.9303C47.6101 45.9558 47.6087 45.9827 47.613 46.009C47.6174 46.0352 47.6274 46.0601 47.6422 46.0815C47.6571 46.1029 47.6763 46.1203 47.6984 46.1322C47.7205 46.1442 47.7448 46.1504 47.7694 46.1503L49.3216 46.1413Z" fill="white"/>
<path d="M54.657 46.0217C55.0481 46.9277 55.4725 47.8122 55.9302 48.6753C55.9838 48.7755 56.0065 48.8518 55.9984 48.9042C55.9873 48.9841 55.9231 49.0139 55.8059 48.9936C55.7402 48.9829 55.6771 48.9823 55.6165 48.9918C55.3507 49.0324 55.1658 48.9221 55.0617 48.661C54.9981 48.5013 54.9652 48.4196 54.9632 48.416C54.6105 47.6829 54.2569 46.9509 53.9022 46.2201C53.8902 46.1953 53.8744 46.1736 53.8556 46.1564C53.8369 46.1392 53.8156 46.1268 53.7931 46.12C53.4788 46.0282 53.1615 46.0091 52.8412 46.0628C52.8196 46.0662 52.7997 46.0784 52.7852 46.0971C52.7708 46.1158 52.7627 46.1398 52.7624 46.1647L52.7457 48.8255C52.7453 48.8559 52.7375 48.8849 52.7239 48.9063C52.7103 48.9277 52.692 48.9398 52.673 48.94H52.0819C52.071 48.94 52.0602 48.9372 52.0502 48.9316C52.0402 48.926 52.0311 48.9178 52.0234 48.9075C52.0158 48.8972 52.0098 48.8849 52.0058 48.8715C52.0018 48.858 51.9998 48.8436 52 48.8291L52.0258 42.1198C52.0258 42.0956 52.0338 42.0723 52.0481 42.0546C52.0625 42.037 52.0822 42.0264 52.1031 42.0251C53.2045 41.9702 54.0664 42.0054 54.6889 42.1306C55.1466 42.2224 55.477 42.4912 55.6801 42.937C55.8499 43.309 55.9166 43.7381 55.8802 44.2245C55.8175 45.0411 55.4219 45.6038 54.6934 45.9126C54.6845 45.9165 54.6763 45.9225 54.6695 45.9304C54.6627 45.9382 54.6574 45.9476 54.654 45.9579C54.6505 45.9683 54.649 45.9793 54.6496 45.9903C54.6501 46.0013 54.6526 46.012 54.657 46.0217ZM54.3827 42.828C54.1634 42.7517 53.9371 42.7165 53.7037 42.7224C53.4126 42.7284 53.1368 42.7254 52.8761 42.7135C52.8606 42.7128 52.8451 42.7158 52.8306 42.7224C52.8161 42.729 52.8029 42.739 52.7917 42.7519C52.7805 42.7647 52.7716 42.7802 52.7655 42.7972C52.7595 42.8143 52.7563 42.8327 52.7563 42.8512V45.183C52.7563 45.2121 52.7657 45.2402 52.7826 45.2615C52.7995 45.2828 52.8226 45.2956 52.8473 45.2974C53.3616 45.3356 53.8401 45.3153 54.2826 45.2366C54.61 45.1782 54.8465 44.9791 54.992 44.6394C55.2244 44.0993 55.2082 43.635 54.9435 43.2464C54.8101 43.0509 54.6232 42.9114 54.3827 42.828Z" fill="white"/>
</g>
<defs>
<clipPath id="clip0_9_63">
<rect width="104" height="51" fill="white"/>
</clipPath>
</defs>
</svg>
